<?xml version="1.0" standalone="no"?>
<!DOCTYPE svg PUBLIC "-//W3C//DTD SVG 20010904//EN"
 "http://www.w3.org/TR/2001/REC-SVG-20010904/DTD/svg10.dtd">
<svg version="1.0" xmlns="http://www.w3.org/2000/svg"
 width="344.000000pt" height="344.000000pt" viewBox="0 0 344.000000 344.000000"
 preserveAspectRatio="xMidYMid meet">

<g transform="translate(0.000000,344.000000) scale(0.100000,-0.100000)"
fill="#000000" stroke="none">
<path d="M1420 2614 c-597 -150 -1099 -280 -1117 -288 -17 -8 -43 -31 -59 -51
-52 -69 -51 -81 101 -685 96 -382 144 -556 160 -581 27 -41 95 -79 143 -79 18
0 221 47 452 105 231 58 422 105 424 105 2 0 -5 -23 -16 -52 -54 -143 -27
-319 70 -445 103 -137 241 -201 412 -190 147 9 271 74 355 188 58 79 86 156
92 254 10 145 -30 254 -128 360 -33 35 -56 65 -52 68 4 2 20 7 35 11 24 5 30
2 44 -26 26 -50 122 -145 178 -177 179 -102 416 -74 570 68 86 79 146 222 146
350 0 180 -98 341 -257 423 -54 28 -65 38 -73 68 -5 19 -48 190 -95 379 -47
189 -92 355 -99 370 -32 60 -104 102 -170 100 -17 -1 -519 -124 -1116 -275z
m1180 191 c16 -9 36 -28 43 -43 15 -29 192 -731 186 -736 -2 -1 -31 0 -63 3
l-60 6 -59 238 -59 237 -42 0 c-54 0 -100 29 -126 80 -15 30 -26 40 -38 36 -9
-3 -316 -80 -682 -171 -366 -92 -669 -171 -675 -176 -34 -33 65 -13 655 135
355 90 657 166 672 169 23 6 29 2 48 -28 25 -40 71 -71 122 -80 21 -4 39 -14
42 -24 13 -40 106 -407 106 -417 0 -5 -27 -18 -60 -28 -158 -47 -287 -185
-324 -345 -8 -35 -16 -64 -18 -66 -3 -3 -1437 -365 -1447 -365 -3 0 -12 13
-19 30 -18 41 -65 72 -118 78 -41 4 -45 7 -53 41 -28 104 -141 562 -141 569 0
4 13 15 29 25 34 20 71 90 71 135 0 28 4 32 38 41 20 5 56 15 80 21 41 11 54
26 30 35 -7 3 -51 -5 -98 -18 l-85 -22 -1 -45 c-2 -61 -27 -107 -69 -127 -19
-9 -35 -21 -35 -26 0 -5 37 -155 81 -333 l82 -324 34 0 c54 0 101 -28 129 -76
14 -24 29 -44 32 -44 4 0 334 83 733 184 l726 184 7 -57 c3 -31 8 -65 12 -76
5 -19 -2 -23 -65 -38 -64 -15 -74 -15 -113 -1 -24 9 -77 18 -118 21 -132 10
-259 -37 -359 -132 l-56 -52 -447 -111 c-246 -62 -460 -112 -475 -112 -39 0
-87 32 -101 66 -25 65 -272 1065 -272 1103 0 30 7 48 27 71 27 29 71 41 1118
304 600 151 1103 275 1118 275 15 1 41 -6 57 -14z m300 -874 c111 -43 196
-130 240 -249 18 -47 21 -73 18 -152 -4 -119 -35 -188 -117 -271 -83 -82 -152
-113 -271 -117 -79 -3 -105 0 -152 18 -159 60 -261 192 -275 355 -17 194 111
377 299 430 71 20 187 14 258 -14z m-763 -631 c87 -43 156 -112 196 -198 30
-62 32 -75 32 -172 0 -97 -2 -110 -31 -170 -53 -113 -124 -177 -241 -220 -92
-33 -212 -26 -306 17 -87 41 -159 113 -200 201 -30 63 -32 74 -31 172 0 86 4
114 22 154 53 116 143 199 258 237 92 30 214 22 301 -21z"/>
<path d="M934 2259 c-10 -17 12 -32 35 -24 29 9 27 35 -3 35 -14 0 -28 -5 -32
-11z"/>
<path d="M1515 2183 c-127 -46 -204 -154 -205 -289 0 -84 23 -145 81 -208 187
-205 528 -78 532 198 2 121 -58 223 -164 280 -68 38 -169 45 -244 19z m209
-38 c49 -21 113 -80 139 -129 30 -56 31 -183 2 -241 -29 -60 -94 -119 -150
-138 -245 -84 -461 169 -335 390 69 121 216 171 344 118z"/>
<path d="M2103 2155 c-62 -27 -89 -104 -58 -165 41 -79 169 -79 210 0 32 62 4
139 -60 166 -42 17 -51 17 -92 -1z m103 -48 c32 -28 36 -72 11 -111 -46 -70
-150 -30 -150 56 0 39 42 78 83 78 16 0 41 -11 56 -23z"/>
<path d="M988 1874 c-63 -34 -77 -122 -27 -178 56 -64 145 -56 189 16 24 39
25 69 5 112 -29 60 -107 83 -167 50z m101 -29 c32 -16 41 -33 41 -78 0 -44
-34 -77 -80 -77 -87 0 -117 114 -41 155 33 18 46 18 80 0z"/>
<path d="M2685 1851 c-92 -24 -173 -91 -215 -176 -32 -67 -34 -179 -3 -246 28
-63 87 -125 147 -157 44 -23 64 -27 136 -27 98 0 158 23 220 85 62 62 85 122
85 220 0 72 -4 92 -27 136 -31 60 -94 119 -153 145 -49 22 -145 32 -190 20z
m180 -55 c56 -26 119 -90 143 -145 8 -20 15 -65 15 -101 1 -158 -115 -275
-272 -274 -80 1 -125 19 -184 73 -65 60 -91 126 -85 218 6 83 37 145 99 195
77 62 194 76 284 34z"/>
<path d="M1877 1226 c-99 -27 -184 -113 -213 -213 -41 -140 26 -290 161 -361
43 -23 62 -27 135 -27 70 0 93 4 130 24 190 99 238 336 98 487 -77 83 -205
120 -311 90z m198 -50 c57 -26 117 -87 141 -143 24 -57 22 -160 -5 -216 -50
-103 -140 -161 -251 -160 -77 0 -122 17 -180 70 -147 132 -110 371 70 452 64
29 159 28 225 -3z"/>
</g>
</svg>
