<?xml version="1.0" standalone="no"?>
<!DOCTYPE svg PUBLIC "-//W3C//DTD SVG 20010904//EN"
 "http://www.w3.org/TR/2001/REC-SVG-20010904/DTD/svg10.dtd">
<svg version="1.0" xmlns="http://www.w3.org/2000/svg"
 width="512.000000pt" height="512.000000pt" viewBox="0 0 512.000000 512.000000"
 preserveAspectRatio="xMidYMid meet">

<g transform="translate(0.000000,512.000000) scale(0.100000,-0.100000)"
fill="#000000" stroke="none">
<path d="M1078 4616 c-142 -50 -186 -105 -334 -416 -118 -249 -118 -250 -154
-256 -124 -22 -257 -137 -304 -265 -25 -67 -26 -78 -26 -283 l0 -213 -116
-244 c-64 -134 -123 -271 -131 -304 -42 -162 41 -348 191 -435 l55 -31 3 -312
3 -312 32 -68 c37 -77 116 -163 183 -197 100 -51 79 -50 937 -50 l802 0 772
-371 c425 -203 798 -377 828 -385 145 -38 283 5 387 119 39 43 76 110 189 346
77 162 147 298 155 302 8 4 40 19 70 32 83 36 153 105 197 195 l38 76 5 195 6
196 112 234 c144 298 160 358 128 476 -29 111 -98 202 -192 256 l-54 30 0 338
c0 306 -2 343 -19 393 -52 152 -181 263 -336 288 -36 6 -407 10 -926 10 l-866
0 -679 326 c-373 179 -704 332 -734 340 -77 20 -145 17 -222 -10z m518 -310
c181 -87 416 -199 522 -249 l192 -92 -376 -3 c-206 -1 -541 -1 -744 0 l-368 3
92 194 c101 213 141 270 208 295 89 32 117 23 474 -148z m-146 -878 c0 -199
-2 -359 -4 -357 -2 2 -18 40 -36 84 -43 110 -91 177 -160 223 -76 51 -132 66
-227 60 -216 -13 -371 -208 -333 -419 25 -138 109 -233 262 -294 51 -20 95
-39 97 -41 2 -2 -136 -4 -307 -4 l-312 0 0 448 c0 269 4 461 10 483 12 42 79
123 121 144 56 29 109 33 497 34 l392 1 0 -362z m3088 338 c52 -23 128 -105
142 -154 6 -23 10 -211 10 -484 l0 -448 -1322 0 c-727 0 -1319 2 -1317 4 2 2
48 22 101 46 121 52 177 100 220 188 31 62 33 74 33 167 0 120 -21 172 -100
250 -61 61 -126 93 -210 104 -120 14 -219 -21 -304 -108 -52 -52 -64 -73 -114
-197 l-56 -139 -1 398 0 397 1438 -2 c1376 -3 1439 -4 1480 -22z m-3393 -521
c23 -13 49 -35 58 -49 16 -23 187 -443 187 -457 0 -15 -445 173 -473 200 -79
73 -85 187 -14 268 40 46 78 62 146 63 40 0 65 -6 96 -25z m993 4 c123 -60
137 -250 23 -324 -30 -20 -183 -85 -408 -174 l-53 -21 19 48 c106 268 157 387
175 414 50 74 156 99 244 57z m-1878 -681 l0 -201 -21 19 c-39 35 -63 95 -63
159 -1 50 6 74 38 143 22 45 41 82 43 82 1 0 3 -91 3 -202z m4648 112 c29 -44
45 -106 39 -153 -3 -21 -23 -75 -45 -120 l-40 -82 -1 198 c-1 214 2 223 47
157z m-3569 -187 c-17 -20 -101 -81 -153 -111 -95 -56 -224 -95 -350 -108
l-66 -7 0 -83 0 -84 29 0 c70 0 194 24 289 56 117 38 206 85 299 156 l63 49 0
-481 0 -480 -412 0 -413 0 -50 24 c-60 28 -97 66 -124 126 -20 43 -21 64 -21
503 l0 457 461 0 c428 0 460 -1 448 -17z m3351 -440 c0 -439 -1 -460 -21 -503
-27 -60 -64 -98 -124 -126 l-50 -24 -1437 0 -1438 0 0 490 0 490 84 -64 c157
-120 354 -196 547 -212 l79 -7 0 85 0 85 -68 6 c-159 15 -330 81 -448 172 -32
25 -60 50 -62 56 -2 5 543 9 1467 9 l1471 0 0 -457z m-350 -827 c0 -3 -52
-114 -115 -248 -94 -199 -123 -251 -159 -285 -63 -60 -142 -78 -222 -49 -43
15 -1201 570 -1211 580 -4 3 379 6 850 6 472 0 857 -2 857 -4z"/>
<path d="M3070 3360 l0 -170 85 0 85 0 0 170 0 170 -85 0 -85 0 0 -170z"/>
<path d="M3410 3360 l0 -170 85 0 85 0 0 170 0 170 -85 0 -85 0 0 -170z"/>
<path d="M3750 3360 l0 -170 90 0 90 0 0 170 0 170 -90 0 -90 0 0 -170z"/>
<path d="M4100 3360 l0 -170 85 0 85 0 0 170 0 170 -85 0 -85 0 0 -170z"/>
<path d="M3070 1825 l0 -85 85 0 85 0 0 85 0 85 -85 0 -85 0 0 -85z"/>
<path d="M3410 1825 l0 -85 85 0 85 0 0 85 0 85 -85 0 -85 0 0 -85z"/>
<path d="M3750 1825 l0 -85 90 0 90 0 0 85 0 85 -90 0 -90 0 0 -85z"/>
<path d="M4100 1825 l0 -85 85 0 85 0 0 85 0 85 -85 0 -85 0 0 -85z"/>
</g>
</svg>
